{
  "accessors": [
    {
      "bufferView": 3,
      "componentType": 5126,
      "count": 9076,
      "max": [
        3.774784564971924,
        4.248809814453125,
        1.0361040830612183
      ],
      "min": [
        -2.0581729412078857,
        0.17738616466522217,
        -1.5433748960494995
      ],
      "type": "VEC3"
    },
    {
      "bufferView": 3,
      "byteOffset": 108912,
      "componentType": 5126,
      "count": 9076,
      "max": [
        1.0,
        1.0,
        1.0
      ],
      "min": [
        -1.0,
        -1.0,
        -1.0
      ],
      "type": "VEC3"
    },
    {
      "bufferView": 2,
      "componentType": 5126,
      "count": 9076,
      "max": [
        0.9803193211555481,
        0.9632198214530945
      ],
      "min": [
        0.019680678844451904,
        0.019680678844451904
      ],
      "type": "VEC2"
    },
    {
      "bufferView": 1,
      "componentType": 5125,
      "count": 38514,
      "type": "SCALAR"
    },
    {
      "bufferView": 5,
      "componentType": 5126,
      "count": 22,
      "max": [
        52.90186309814453,
        2.6986029148101807,
        2.3591935871536407e-07,
        0.0,
        2.6986029148101807,
        52.90186309814453,
        2.889178768456075e-23,
        0.0,
        8.245092431025114e-07,
        2.8616576194763184,
        57.289920806884766,
        0.0,
        6.322498798370361,
        3.147960662841797,
        0.5667133927345276,
        1.0
      ],
      "min": [
        -2.6986029148101807,
        -2.6986029148101807,
        -2.3591935871536407e-07,
        0.0,
        -2.6986029148101807,
        -2.6986029148101807,
        -2.6424720287323,
        0.0,
        -8.245092431025114e-07,
        -1.4164963602070202e-07,
        -0.592956006526947,
        0.0,
        -6.322498798370361,
        -6.778970718383789,
        0.0,
        1.0
      ],
      "type": "MAT4"
    },
    {
      "bufferView": 0,
      "componentType": 5123,
      "count": 9076,
      "type": "VEC4"
    },
    {
      "bufferView": 4,
      "componentType": 5126,
      "count": 9076,
      "max": [
        1.0,
        0.46817269921302795,
        0.2710673213005066,
        0.24109013378620148
      ],
      "min": [
        0.0,
        0.0,
        0.0,
        0.0
      ],
      "type": "VEC4"
    },
    {
      "bufferView": 6,
      "componentType": 5126,
      "count": 295,
      "max": [
        6.666666507720947
      ],
      "min": [
        0.0416666679084301
      ],
      "type": "SCALAR"
    },
    {
      "bufferView": 8,
      "componentType": 5126,
      "count": 295,
      "max": [
        -1.4979329672215101e-24,
        0.2856905460357666,
        6.0514073751960495e-09,
        1.0
      ],
      "min": [
        -0.09537249803543091,
        -0.1190432757139206,
        -4.812117913388647e-05,
        0.9535785913467407
      ],
      "type": "VEC4"
    },
    {
      "bufferView": 6,
      "byteOffset": 1180,
      "componentType": 5126,
      "count": 310,
      "max": [
        6.666666507720947
      ],
      "min": [
        0.0416666679084301
      ],
      "type": "SCALAR"
    },
    {
      "bufferView": 7,
      "componentType": 5126,
      "count": 310,
      "max": [
        2.930988785010413e-14,
        1.163295865058899,
        3.3527612686157227e-08
      ],
      "min": [
        -4.516914486885071e-08,
        1.1632955074310303,
        -4.263256414560601e-14
      ],
      "type": "VEC3"
    },
    {
      "bufferView": 6,
      "byteOffset": 2420,
      "componentType": 5126,
      "count": 8,
      "max": [
        6.666666507720947
      ],
      "min": [
        0.0416666679084301
      ],
      "type": "SCALAR"
    },
    {
      "bufferView": 7,
      "byteOffset": 3720,
      "componentType": 5126,
      "count": 8,
      "max": [
        1.0,
        0.9999998807907104,
        1.0
      ],
      "min": [
        1.0,
        0.9999997019767761,
        0.9999999403953552
      ],
      "type": "VEC3"
    },
    {
      "bufferView": 6,
      "byteOffset": 2452,
      "componentType": 5126,
      "count": 310,
      "max": [
        6.666666507720947
      ],
      "min": [
        0.0416666679084301
      ],
      "type": "SCALAR"
    },
    {
      "bufferView": 8,
      "byteOffset": 4720,
      "componentType": 5126,
      "count": 310,
      "max": [
        0.4225171208381653,
        0.5929696559906006,
        0.008726203814148903,
        0.999923825263977
      ],
      "min": [
        -0.028649142012000084,
        0.008726203814148903,
        -0.12187597900629044,
        0.7927888035774231
      ],
      "type": "VEC4"
    },
    {
      "bufferView": 6,
      "byteOffset": 3692,
      "componentType": 5126,
      "count": 246,
      "max": [
        6.666666507720947
      ],
      "min": [
        0.0416666679084301
      ],
      "type": "SCALAR"
    },
    {
      "bufferView": 7,
      "byteOffset": 3816,
      "componentType": 5126,
      "count": 246,
      "max": [
        5.240252676230739e-14,
        1.430281400680542,
        -4.263255736934243e-14
      ],
      "min": [
        -2.7124769985675812e-08,
        1.4302812814712524,
        -5.587935447692871e-09
      ],
      "type": "VEC3"
    },
    {
      "bufferView": 6,
      "byteOffset": 4676,
      "componentType": 5126,
      "count": 8,
      "max": [
        6.666666507720947
      ],
      "min": [
        0.0416666679084301
      ],
      "type": "SCALAR"
    },
    {
      "bufferView": 7,
      "byteOffset": 6768,
      "componentType": 5126,
      "count": 8,
      "max": [
        1.0,
        1.0,
        1.0
      ],
      "min": [
        0.9999999403953552,
        0.9999998807907104,
        1.0
      ],
      "type": "VEC3"
    },
    {
      "bufferView": 6,
      "byteOffset": 4708,
      "componentType": 5126,
      "count": 246,
      "max": [
        6.666666507720947
      ],
      "min": [
        0.0416666679084301
      ],
      "type": "SCALAR"
    },
    {
      "bufferView": 8,
      "byteOffset": 9680,
      "componentType": 5126,
      "count": 246,
      "max": [
        0.018998276442289352,
        7.694752224719076e-15,
        0.07974521070718765,
        1.0
      ],
      "min": [
        4.7178597627163555e-22,
        -0.010469588451087475,
        -0.1158832460641861,
        0.9930259585380554
      ],
      "type": "VEC4"
    },
    {
      "bufferView": 6,
      "byteOffset": 5692,
      "componentType": 5126,
      "count": 4,
      "max": [
        6.666666507720947
      ],
      "min": [
        0.0416666679084301
      ],
      "type": "SCALAR"
    },
    {
      "bufferView": 7,
      "byteOffset": 6864,
      "componentType": 5126,
      "count": 4,
      "max": [
        0.9999999403953552,
        1.0,
        1.0
      ],
      "min": [
        0.9999999403953552,
        1.0,
        0.9999999403953552
      ],
      "type": "VEC3"
    },
    {
      "bufferView": 6,
      "byteOffset": 5708,
      "componentType": 5126,
      "count": 246,
      "max": [
        6.666666507720947
      ],
      "min": [
        0.0416666679084301
      ],
      "type": "SCALAR"
    },
    {
      "bufferView": 8,
      "byteOffset": 13616,
      "componentType": 5126,
      "count": 246,
      "max": [
        0.027198033407330513,
        3.284668537162361e-08,
        0.2612958550453186,
        0.9991142153739929
      ],
      "min": [
        -2.1474884093208857e-08,
        -0.008987120352685452,
        0.030825862661004066,
        0.965258777141571
      ],
      "type": "VEC4"
    }
  ],
  "animations": [
    {
      "channels": [
        {
          "sampler": 0,
          "target": {
            "node": 12,
            "path": "rotation"
          }
        },
        {
          "sampler": 1,
          "target": {
            "node": 16,
            "path": "translation"
          }
        },
        {
          "sampler": 2,
          "target": {
            "node": 16,
            "path": "scale"
          }
        },
        {
          "sampler": 3,
          "target": {
            "node": 16,
            "path": "rotation"
          }
        },
        {
          "sampler": 4,
          "target": {
            "node": 15,
            "path": "translation"
          }
        },
        {
          "sampler": 5,
          "target": {
            "node": 15,
            "path": "scale"
          }
        },
        {
          "sampler": 6,
          "target": {
            "node": 15,
            "path": "rotation"
          }
        },
        {
          "sampler": 7,
          "target": {
            "node": 14,
            "path": "scale"
          }
        },
        {
          "sampler": 8,
          "target": {
            "node": 14,
            "path": "rotation"
          }
        }
      ],
      "name": "Scene",
      "samplers": [
        {
          "input": 7,
          "interpolation": "LINEAR",
          "output": 8
        },
        {
          "input": 9,
          "interpolation": "LINEAR",
          "output": 10
        },
        {
          "input": 11,
          "interpolation": "LINEAR",
          "output": 12
        },
        {
          "input": 13,
          "interpolation": "LINEAR",
          "output": 14
        },
        {
          "input": 15,
          "interpolation": "LINEAR",
          "output": 16
        },
        {
          "input": 17,
          "interpolation": "LINEAR",
          "output": 18
        },
        {
          "input": 19,
          "interpolation": "LINEAR",
          "output": 20
        },
        {
          "input": 21,
          "interpolation": "LINEAR",
          "output": 22
        },
        {
          "input": 23,
          "interpolation": "LINEAR",
          "output": 24
        }
      ]
    }
  ],
  "asset": {
    "extras": {
      "author": "dorit (https://sketchfab.com/dorit.b)",
      "license": "CC-BY-4.0 (http://creativecommons.org/licenses/by/4.0/)",
      "source": "https://sketchfab.com/3d-models/astronaut-with-flag-9bb8640498a54ef59bd781b8dcbcedc8",
      "title": "Astronaut with flag"
    },
    "generator": "Sketchfab-12.70.0",
    "version": "2.0"
  },
  "bufferViews": [
    {
      "buffer": 0,
      "byteLength": 72608,
      "byteStride": 8,
      "name": "shortBufferViews",
      "target": 34962
    },
    {
      "buffer": 0,
      "byteLength": 154056,
      "byteOffset": 72608,
      "name": "floatBufferViews",
      "target": 34963
    },
    {
      "buffer": 0,
      "byteLength": 72608,
      "byteOffset": 226664,
      "byteStride": 8,
      "name": "floatBufferViews",
      "target": 34962
    },
    {
      "buffer": 0,
      "byteLength": 217824,
      "byteOffset": 299272,
      "byteStride": 12,
      "name": "floatBufferViews",
      "target": 34962
    },
    {
      "buffer": 0,
      "byteLength": 145216,
      "byteOffset": 517096,
      "byteStride": 16,
      "name": "floatBufferViews",
      "target": 34962
    },
    {
      "buffer": 0,
      "byteLength": 1408,
      "byteOffset": 662312,
      "name": "floatBufferViews"
    },
    {
      "buffer": 0,
      "byteLength": 6692,
      "byteOffset": 663720,
      "name": "floatBufferViews"
    },
    {
      "buffer": 0,
      "byteLength": 6912,
      "byteOffset": 670412,
      "byteStride": 12,
      "name": "floatBufferViews"
    },
    {
      "buffer": 0,
      "byteLength": 17552,
      "byteOffset": 677324,
      "byteStride": 16,
      "name": "floatBufferViews"
    }
  ],
  "buffers": [
    {
      "byteLength": 694876,
      "uri": "scene.bin"
    }
  ],
  "images": [
    {
      "uri": "textures/Texture_baseColor.png"
    }
  ],
  "materials": [
    {
      "doubleSided": true,
      "name": "Texture",
      "pbrMetallicRoughness": {
        "baseColorTexture": {
          "index": 0
        },
        "metallicFactor": 0.6419588414634146,
        "roughnessFactor": 0.7212271341463414
      }
    }
  ],
  "meshes": [
    {
      "name": "Astronaut_Texture_0",
      "primitives": [
        {
          "attributes": {
            "JOINTS_0": 5,
            "NORMAL": 1,
            "POSITION": 0,
            "TEXCOORD_0": 2,
            "WEIGHTS_0": 6
          },
          "indices": 3,
          "material": 0,
          "mode": 4
        }
      ]
    }
  ],
  "nodes": [
    {
      "children": [
        1
      ],
      "matrix": [
        1.0,
        0.0,
        0.0,
        0.0,
        0.0,
        2.220446049250313e-16,
        -1.0,
        0.0,
        0.0,
        1.0,
        2.220446049250313e-16,
        0.0,
        0.0,
        0.0,
        0.0,
        1.0
      ],
      "name": "Sketchfab_model"
    },
    {
      "children": [
        2
      ],
      "matrix": [
        0.009999999776482582,
        0.0,
        0.0,
        0.0,
        0.0,
        0.0,
        0.009999999776482582,
        0.0,
        0.0,
        -0.009999999776482582,
        0.0,
        0.0,
        0.0,
        0.0,
        0.0,
        1.0
      ],
      "name": "244d536c64d94196ac587662aef1515a.fbx"
    },
    {
      "children": [
        3
      ],
      "name": "Object_2"
    },
    {
      "children": [
        4,
        5
      ],
      "name": "RootNode"
    },
    {
      "name": "Astronaut",
      "rotation": [
        0.5,
        0.4999999701976776,
        0.5,
        -0.5
      ],
      "scale": [
        52.90186309814453,
        52.90186309814453,
        57.289920806884766
      ],
      "translation": [
        0.0,
        108.62390899658203,
        0.0
      ]
    },
    {
      "children": [
        6
      ],
      "name": "Armature",
      "rotation": [
        -0.7071068286895752,
        0.0,
        0.0,
        0.7071067094802856
      ],
      "scale": [
        19.603425979614258,
        19.603425979614258,
        19.603425979614258
      ],
      "translation": [
        0.0,
        55.73966598510742,
        0.0
      ]
    },
    {
      "children": [
        7,
        9,
        8
      ],
      "name": "Object_6"
    },
    {
      "children": [
        10,
        27,
        28,
        29,
        30
      ],
      "name": "_rootJoint"
    },
    {
      "matrix": [
        6.308483637336555e-07,
        0.0,
        52.90186248885266,
        0.0,
        52.90186248885266,
        3.2393048282953425e-15,
        -6.308483637336555e-07,
        0.0,
        -3.507995941376405e-15,
        57.289921368655996,
        4.183243075927488e-23,
        0.0,
        0.0,
        108.62390349509133,
        0.0,
        1.0
      ],
      "name": "Object_8"
    },
    {
      "mesh": 0,
      "name": "Object_9",
      "skin": 0
    },
    {
      "children": [
        11,
        21,
        24
      ],
      "name": "Root_00",
      "rotation": [
        0.7071068286895752,
        0.0,
        0.0,
        0.7071067094802856
      ]
    },
    {
      "children": [
        12,
        13,
        17
      ],
      "name": "Spine_01",
      "translation": [
        0.0,
        1.0,
        0.0
      ]
    },
    {
      "name": "Head_02",
      "rotation": [
        0.0,
        -0.001923766452819109,
        0.0,
        0.999998152256012
      ],
      "translation": [
        0.0,
        2.93560791015625,
        0.0
      ]
    },
    {
      "children": [
        14
      ],
      "name": "Shoulder.L_03",
      "rotation": [
        7.357306230915128e-08,
        7.980833771625839e-08,
        -0.8248476982116699,
        0.5653550028800964
      ],
      "scale": [
        1.0000001192092896,
        1.0,
        1.0
      ],
      "translation": [
        0.0,
        2.93560791015625,
        0.0
      ]
    },
    {
      "children": [
        15
      ],
      "name": "UpperArm.L_04",
      "rotation": [
        -2.1474884093208857e-08,
        3.0212923718409e-08,
        0.18348892033100128,
        0.9830217957496643
      ],
      "scale": [
        0.9999999403953552,
        1.0,
        1.0
      ],
      "translation": [
        -5.960462345910855e-08,
        2.167410135269165,
        -8.526512829121202e-14
      ]
    },
    {
      "children": [
        16
      ],
      "name": "LowerArm.L_05",
      "rotation": [
        4.7178597627163555e-22,
        2.6469779601696886e-23,
        -1.672225785238359e-15,
        1.0
      ],
      "translation": [
        5.240252676230739e-14,
        1.4302812814712524,
        -4.263255736934243e-14
      ]
    },
    {
      "name": "Hand.L_06",
      "rotation": [
        0.026425886899232864,
        0.008954416960477829,
        0.008491857908666134,
        0.999574601650238
      ],
      "scale": [
        1.0,
        0.9999998211860657,
        1.0
      ],
      "translation": [
        3.019806626980426e-14,
        1.163295865058899,
        -4.263256414560601e-14
      ]
    },
    {
      "children": [
        18
      ],
      "name": "Shoulder.R_07",
      "rotation": [
        7.357306230915128e-08,
        -7.980833771625839e-08,
        0.8248476982116699,
        0.5653550028800964
      ],
      "scale": [
        1.0000001192092896,
        1.0,
        1.0
      ],
      "translation": [
        0.0,
        2.93560791015625,
        0.0
      ]
    },
    {
      "children": [
        19
      ],
      "name": "UpperArm.R_08",
      "rotation": [
        -2.1474884093208857e-08,
        -3.0212923718409e-08,
        -0.18348892033100128,
        0.9830217957496643
      ],
      "scale": [
        0.9999999403953552,
        1.0,
        1.0
      ],
      "translation": [
        5.960462345910855e-08,
        2.167410135269165,
        -8.526512829121202e-14
      ]
    },
    {
      "children": [
        20
      ],
      "name": "LowerArm.R_09",
      "rotation": [
        4.7178597627163555e-22,
        -2.6469779601696886e-23,
        1.672225785238359e-15,
        1.0
      ],
      "translation": [
        -5.240252676230739e-14,
        1.4302812814712524,
        -4.263255736934243e-14
      ]
    },
    {
      "name": "Hand.R_010",
      "rotation": [
        2.5243551976337916e-29,
        -0.0,
        -3.2573738404388177e-21,
        1.0
      ],
      "scale": [
        1.0,
        0.9999998807907104,
        1.0
      ],
      "translation": [
        -3.019806626980426e-14,
        1.163295865058899,
        -4.263256414560601e-14
      ]
    },
    {
      "children": [
        22
      ],
      "name": "UpperLeg.L_011",
      "rotation": [
        -2.6564492827674258e-09,
        -2.0055642460948398e-16,
        1.0,
        -7.549790126404332e-08
      ],
      "translation": [
        1.032981038093567,
        0.3045969009399414,
        0.0
      ]
    },
    {
      "children": [
        23
      ],
      "name": "LowerLeg.L_012",
      "rotation": [
        1.7149992380756846e-33,
        3.552713678800501e-15,
        4.62947150113721e-31,
        1.0
      ],
      "translation": [
        -6.943633934497484e-08,
        1.3773078918457031,
        -6.237399216441346e-16
      ]
    },
    {
      "name": "Foot.L_013",
      "rotation": [
        -5.5318221114930566e-09,
        0.7755312323570251,
        0.6313092112541199,
        9.28468182337383e-08
      ],
      "translation": [
        1.0507622505429026e-07,
        1.1919012069702148,
        5.582599337775225e-16
      ]
    },
    {
      "children": [
        25
      ],
      "name": "UpperLeg.R_014",
      "rotation": [
        1.8549705771420122e-08,
        -1.400463946199526e-15,
        1.0,
        7.549790126404332e-08
      ],
      "translation": [
        -1.032981038093567,
        0.3045969009399414,
        0.0
      ]
    },
    {
      "children": [
        26
      ],
      "name": "LowerLeg.R_015",
      "rotation": [
        5.317141808938873e-31,
        -3.552713678800501e-15,
        1.3234885856543917e-23,
        1.0
      ],
      "translation": [
        6.943633934497484e-08,
        1.3773078918457031,
        -5.2588802859935765e-15
      ]
    },
    {
      "name": "Foot.R_016",
      "rotation": [
        5.5318221114930566e-09,
        0.7755312323570251,
        0.6313092112541199,
        -9.28468182337383e-08
      ],
      "translation": [
        -1.0507622505429026e-07,
        1.1919012069702148,
        3.8982666988635235e-15
      ]
    },
    {
      "name": "IKLegPole.L_017",
      "rotation": [
        -1.7355463150907698e-30,
        3.970466940254533e-23,
        1.0,
        7.549790126404332e-08
      ],
      "translation": [
        1.032981038093567,
        -1.4402461051940918,
        -1.0727111101150513
      ]
    },
    {
      "name": "IKTarget.L_018",
      "rotation": [
        -6.123233601181349e-17,
        1.0,
        -6.123233601181349e-17,
        7.549790126404332e-08
      ],
      "translation": [
        1.032981038093567,
        -1.0587911840678754e-22,
        -2.2646121978759766
      ]
    },
    {
      "name": "IKLegPole.R_019",
      "rotation": [
        -1.7355463150907698e-30,
        3.970466940254533e-23,
        1.0,
        7.549790126404332e-08
      ],
      "translation": [
        -1.032981038093567,
        -1.4402461051940918,
        -1.0727111101150513
      ]
    },
    {
      "name": "IKTarget.R_020",
      "rotation": [
        6.123233601181349e-17,
        1.0,
        -6.123233601181349e-17,
        -7.549790126404332e-08
      ],
      "translation": [
        -1.032981038093567,
        -1.0587911840678754e-22,
        -2.2646121978759766
      ]
    }
  ],
  "samplers": [
    {
      "magFilter": 9729,
      "minFilter": 9987,
      "wrapS": 10497,
      "wrapT": 10497
    }
  ],
  "scene": 0,
  "scenes": [
    {
      "name": "Sketchfab_Scene",
      "nodes": [
        0
      ]
    }
  ],
  "skins": [
    {
      "inverseBindMatrices": 4,
      "joints": [
        7,
        10,
        11,
        12,
        13,
        14,
        15,
        16,
        17,
        18,
        19,
        20,
        21,
        22,
        23,
        24,
        25,
        26,
        27,
        28,
        29,
        30
      ],
      "skeleton": 7
    }
  ],
  "textures": [
    {
      "sampler": 0,
      "source": 0
    }
  ]
}
